<svg xmlns="http://www.w3.org/2000/svg" viewBox="0 0 100 100">
    <g fill="#f26832">
        <path d="M36.703 11.011L9.638 26.636v12.121l27.065-15.626 27.064 15.626V26.636zm26.595 78.081L36.233 73.467V61.348l27.065 15.625 27.064-15.625v12.119z"/>
        <path d="M9.638 42.012l27.065-15.626 10.495 6.06-27.064 15.626v31.252l-10.496-6.06zm67.445-23.14L50.018 3.247l-10.496 6.06 27.064 15.625v31.252l10.497-6.06z"/>
        <path d="M23.01 81.127l.001-31.251 10.496-6.06v31.252l27.064 15.625-10.496 6.061zm67.352-23.035V26.84l-10.496-6.06v31.251L52.802 67.658l10.496 6.061z"/>
    </g>
</svg>